REM DIRINDEX 1\2\4,1\2\5,1\3\6,1\3\7,1\3\8
REM DIRNAME cjc092,folder01,folder02,folder03,folder04,folder05,folder06,folder07
TITLE ""
FILE "LEVEL2-001-midashigo.mp3" MP3
  TRACK 01 AUDIO
    TITLE "0:"
    INDEX 01 00:00:00
  TRACK 02 AUDIO
    TITLE "6:cjc092_0853"
    INDEX 01 00:00:05
  TRACK 03 AUDIO
    TITLE "0:"
    INDEX 01 00:01:42
  TRACK 04 AUDIO
    TITLE "6:cjc092_0854"
    INDEX 01 00:02:20
  TRACK 05 AUDIO
    TITLE "0:"
    INDEX 01 00:04:60
  TRACK 06 AUDIO
    TITLE "7:cjc092_0855"
    INDEX 01 00:05:40
  TRACK 07 AUDIO
    TITLE "8:cjc092_0856"
    INDEX 01 00:07:15
  TRACK 08 AUDIO
    TITLE "0:"
    INDEX 01 00:08:38
  TRACK 09 AUDIO
    TITLE "7:cjc092_0857"
    INDEX 01 00:08:73
  TRACK 10 AUDIO
    TITLE "8:cjc092_0858"
    INDEX 01 00:10:29
  TRACK 11 AUDIO
    TITLE "0:"
    INDEX 01 00:11:50
  TRACK 12 AUDIO
    TITLE "7:cjc092_0859"
    INDEX 01 00:12:09
  TRACK 13 AUDIO
    TITLE "8:cjc092_0860"
    INDEX 01 00:13:35
  TRACK 14 AUDIO
    TITLE "0:"
    INDEX 01 00:14:47
  TRACK 15 AUDIO
    TITLE "7:cjc092_0861"
    INDEX 01 00:15:09
  TRACK 16 AUDIO
    TITLE "8:cjc092_0862"
    INDEX 01 00:16:40
  TRACK 17 AUDIO
    TITLE "0:"
    INDEX 01 00:18:13
  TRACK 18 AUDIO
    TITLE "7:cjc092_0863"
    INDEX 01 00:18:41
  TRACK 19 AUDIO
    TITLE "8:cjc092_0864"
    INDEX 01 00:19:73
  TRACK 20 AUDIO
    TITLE "0:"
    INDEX 01 00:21:68
  TRACK 21 AUDIO
    TITLE "7:cjc092_0865"
    INDEX 01 00:22:29
  TRACK 22 AUDIO
    TITLE "8:cjc092_0866"
    INDEX 01 00:23:69
  TRACK 23 AUDIO
    TITLE "0:"
    INDEX 01 00:25:58
  TRACK 24 AUDIO
    TITLE "7:cjc092_0867"
    INDEX 01 00:26:17
  TRACK 25 AUDIO
    TITLE "8:cjc092_0868"
    INDEX 01 00:27:51
  TRACK 26 AUDIO
    TITLE "0:"
    INDEX 01 00:29:72
  TRACK 27 AUDIO
    TITLE "7:cjc092_0869"
    INDEX 01 00:30:30
  TRACK 28 AUDIO
    TITLE "8:cjc092_0870"
    INDEX 01 00:31:57
  TRACK 29 AUDIO
    TITLE "0:"
    INDEX 01 00:33:15
  TRACK 30 AUDIO
    TITLE "7:cjc092_0871"
    INDEX 01 00:33:48
  TRACK 31 AUDIO
    TITLE "8:cjc092_0872"
    INDEX 01 00:35:04
  TRACK 32 AUDIO
    TITLE "0:"
    INDEX 01 00:36:56
  TRACK 33 AUDIO
    TITLE "7:cjc092_0873"
    INDEX 01 00:37:12
  TRACK 34 AUDIO
    TITLE "8:cjc092_0874"
    INDEX 01 00:38:39
  TRACK 35 AUDIO
    TITLE "0:"
    INDEX 01 00:40:50
  TRACK 36 AUDIO
    TITLE "7:cjc092_0875"
    INDEX 01 00:41:12
  TRACK 37 AUDIO
    TITLE "8:cjc092_0876"
    INDEX 01 00:42:37
  TRACK 38 AUDIO
    TITLE "0:"
    INDEX 01 00:44:48
  TRACK 39 AUDIO
    TITLE "7:cjc092_0877"
    INDEX 01 00:45:12
  TRACK 40 AUDIO
    TITLE "8:cjc092_0878"
    INDEX 01 00:46:66
  TRACK 41 AUDIO
    TITLE "0:"
    INDEX 01 00:49:08
  TRACK 42 AUDIO
    TITLE "7:cjc092_0879"
    INDEX 01 00:49:31
  TRACK 43 AUDIO
    TITLE "8:cjc092_0880"
    INDEX 01 00:50:52
  TRACK 44 AUDIO
    TITLE "0:"
    INDEX 01 00:51:71
  TRACK 45 AUDIO
    TITLE "7:cjc092_0881"
    INDEX 01 00:52:28
  TRACK 46 AUDIO
    TITLE "8:cjc092_0882"
    INDEX 01 00:53:53
  TRACK 47 AUDIO
    TITLE "0:"
    INDEX 01 00:57:72
  TRACK 48 AUDIO
    TITLE "7:cjc092_0883"
    INDEX 01 00:58:34
  TRACK 49 AUDIO
    TITLE "8:cjc092_0884"
    INDEX 01 01:00:06
  TRACK 50 AUDIO
    TITLE "0:"
    INDEX 01 01:01:54
  TRACK 51 AUDIO
    TITLE "7:cjc092_0885"
    INDEX 01 01:02:10
  TRACK 52 AUDIO
    TITLE "8:cjc092_0886"
    INDEX 01 01:03:51
  TRACK 53 AUDIO
    TITLE "0:"
    INDEX 01 01:05:36
  TRACK 54 AUDIO
    TITLE "7:cjc092_0887"
    INDEX 01 01:05:68
  TRACK 55 AUDIO
    TITLE "8:cjc092_0888"
    INDEX 01 01:07:49
  TRACK 56 AUDIO
    TITLE "0:"
    INDEX 01 01:09:44
  TRACK 57 AUDIO
    TITLE "7:cjc092_0889"
    INDEX 01 01:10:04
  TRACK 58 AUDIO
    TITLE "8:cjc092_0890"
    INDEX 01 01:11:31
  TRACK 59 AUDIO
    TITLE "0:"
    INDEX 01 01:16:20
  TRACK 60 AUDIO
    TITLE "7:cjc092_0891"
    INDEX 01 01:16:54
  TRACK 61 AUDIO
    TITLE "8:cjc092_0892"
    INDEX 01 01:18:17
  TRACK 62 AUDIO
    TITLE "0:"
    INDEX 01 01:22:11
  TRACK 63 AUDIO
    TITLE "7:cjc092_0893"
    INDEX 01 01:22:44
  TRACK 64 AUDIO
    TITLE "8:cjc092_0894"
    INDEX 01 01:24:02
  TRACK 65 AUDIO
    TITLE "0:"
    INDEX 01 01:27:30
  TRACK 66 AUDIO
    TITLE "7:cjc092_0895"
    INDEX 01 01:27:63
  TRACK 67 AUDIO
    TITLE "8:cjc092_0896"
    INDEX 01 01:29:05
  TRACK 68 AUDIO
    TITLE "0:"
    INDEX 01 01:31:41
  TRACK 69 AUDIO
    TITLE "7:cjc092_0897"
    INDEX 01 01:32:02
  TRACK 70 AUDIO
    TITLE "8:cjc092_0898"
    INDEX 01 01:33:15
  TRACK 71 AUDIO
    TITLE "0:"
    INDEX 01 01:35:65
  TRACK 72 AUDIO
    TITLE "7:cjc092_0899"
    INDEX 01 01:36:29
  TRACK 73 AUDIO
    TITLE "8:cjc092_0900"
    INDEX 01 01:37:50
  TRACK 74 AUDIO
    TITLE "0:"
    INDEX 01 01:39:68
